<svg width="805" height="873" viewBox="0 0 805 873" fill="none" xmlns="http://www.w3.org/2000/svg">
<path d="M60.3069 371C19.9069 302.2 43.4736 162.333 60.3069 101L739.807 0L804.307 271.5L765.807 872.5C687.14 873.5 511.707 866 439.307 828C348.807 780.5 389.807 704 314.807 664C239.807 624 282.807 518.5 256.807 478.5C230.807 438.5 110.807 457 60.3069 371Z" fill="#FFF1DA"/>
<path d="M96.1744 396.847C94.8161 397.151 93.4931 397.715 92.2875 398.502C89.1467 400.504 87.3194 403.36 88.2064 404.883C89.0933 406.405 92.3584 406.015 95.4992 404.014C96.721 403.254 97.8063 402.284 98.6885 401.162C99.0979 400.62 99.1714 399.944 98.8761 399.439L97.7239 397.462C97.4308 396.955 96.8227 396.714 96.1744 396.847Z" fill="#D5D6DB"/>
<path d="M88.2874 369.854C87.3025 370.075 86.343 370.484 85.4688 371.055C83.1919 372.506 81.8662 374.577 82.5088 375.68C83.1514 376.782 85.5198 376.5 87.7964 375.049C88.6823 374.498 89.4693 373.794 90.1091 372.98C90.4055 372.587 90.4587 372.098 90.2447 371.732L89.4104 370.3C89.1981 369.933 88.7575 369.758 88.2874 369.854Z" fill="#D5D6DB"/>
<path d="M75.4732 370.985C75.254 370.96 75.0201 371.019 74.8174 371.148L69.4692 374.556C69.0218 374.84 68.8428 375.388 69.0698 375.779C69.1217 375.869 69.1927 375.945 69.2789 376.004L82.4606 385.089L100.294 373.724L75.4732 370.985Z" fill="#029BC5"/>
<path d="M131.85 369.7L83.3182 400.252L54.6055 411.677L39.9623 414.588L38.3514 411.851L119.246 361.904C121.657 360.409 124.343 359.492 127.032 359.245C128.209 359.143 129.372 359.182 130.493 359.361C131.487 359.512 132.43 359.802 133.294 360.224C134.258 360.703 136.092 360.758 136.687 361.711C136.689 361.709 138.091 366.083 131.85 369.7V369.7Z" fill="#E1E6E9"/>
<path d="M83.9615 396.209L62.9662 429.679C62.704 430.15 62.8597 430.676 63.3135 430.855C63.5921 430.965 63.933 430.922 64.2194 430.74L69.5634 427.35C70.5913 426.697 71.5014 425.869 72.2375 424.915L112.954 377.046L83.9615 396.209Z" fill="#029BC5"/>
<path d="M30.9819 395.092C30.6317 394.972 30.2149 395.034 29.8631 395.258L25.4456 398.072C24.8437 398.455 24.6038 399.191 24.9097 399.717C24.9679 399.817 25.0436 399.905 25.1344 399.977L37.5111 409.89L50.5241 401.762L30.9819 395.092Z" fill="#029BC5"/>
<path d="M41.6595 411.677L34.998 421.006C34.9004 421.14 34.9233 421.308 35.0493 421.382C35.1401 421.435 35.2641 421.425 35.3649 421.358L39.4932 418.742C39.5252 418.721 39.5543 418.696 39.5783 418.667L49.3118 406.832L41.6595 411.677Z" fill="#029BC5"/>
<path d="M129.697 359.763C128.542 359.578 127.345 359.538 126.132 359.645C124.951 361.296 124.196 363.15 123.943 365.024C123.924 365.4 124.228 365.671 124.62 365.629C124.743 365.616 124.864 365.573 124.973 365.504L132.581 360.66C131.692 360.221 130.72 359.919 129.697 359.763Z" fill="#029BC5"/>
<path d="M113.117 368.671L118.084 365.534L122.711 373.403L117.744 376.54L113.117 368.671Z" fill="#D5D6DB"/>
<path d="M109.992 371.783C109.393 372.163 109.154 372.891 109.458 373.411L109.95 374.253C110.274 374.76 111.013 374.849 111.602 374.452C112.162 374.074 112.387 373.387 112.117 372.88L111.625 372.038C111.321 371.519 110.59 371.405 109.992 371.783V371.783Z" fill="#3A556A"/>
<path d="M105.527 374.556C104.929 374.935 104.69 375.664 104.994 376.184L105.486 377.026C105.81 377.532 106.549 377.621 107.137 377.224C107.697 376.847 107.923 376.16 107.653 375.653L107.16 374.811C106.857 374.292 106.126 374.178 105.527 374.556V374.556Z" fill="#3A556A"/>
<path d="M101.062 377.329C100.464 377.709 100.225 378.437 100.529 378.956L101.021 379.798C101.345 380.304 102.084 380.394 102.673 379.997C103.233 379.619 103.458 378.932 103.188 378.425L102.696 377.583C102.392 377.064 101.66 376.95 101.062 377.329V377.329Z" fill="#3A556A"/>
<path d="M96.5973 380.102C95.9994 380.481 95.7611 381.209 96.0647 381.728L96.557 382.57C96.8808 383.077 97.6201 383.166 98.2084 382.769C98.7682 382.391 98.9937 381.705 98.7239 381.198L98.2316 380.356C97.9274 379.836 97.1959 379.722 96.5973 380.102V380.102Z" fill="#3A556A"/>
<path d="M92.1334 382.874C91.5352 383.254 91.2967 383.982 91.6005 384.502L92.0931 385.344C92.3967 385.863 93.128 385.977 93.7264 385.598C94.3247 385.219 94.5636 384.491 94.26 383.972L93.7674 383.129C93.4645 382.61 92.7335 382.495 92.1347 382.873C92.1342 382.874 92.1339 382.874 92.1334 382.874Z" fill="#3A556A"/>
<path d="M87.669 385.647C87.0708 386.027 86.8323 386.755 87.1361 387.274L87.6287 388.117C87.9323 388.636 88.6636 388.75 89.2619 388.371C89.8603 387.992 90.0992 387.263 89.7956 386.744L89.303 385.902C89 385.382 88.269 385.268 87.6703 385.646C87.6698 385.646 87.6693 385.647 87.669 385.647Z" fill="#3A556A"/>
<path d="M83.2044 388.419C82.6062 388.799 82.3677 389.527 82.6714 390.047L83.164 390.889C83.4685 391.408 84.2001 391.52 84.7978 391.141C85.3945 390.762 85.6329 390.035 85.3306 389.517L84.838 388.675C84.5345 388.155 83.8033 388.041 83.2044 388.419Z" fill="#3A556A"/>
<path d="M78.7398 391.192C78.1416 391.572 77.9031 392.3 78.2068 392.819L78.6994 393.662C79.0039 394.18 79.7355 394.293 80.3332 393.914C80.9299 393.535 81.1683 392.808 80.866 392.289L80.3734 391.447C80.0699 390.927 79.3387 390.813 78.7398 391.192Z" fill="#3A556A"/>
<path d="M74.2755 393.964C73.6773 394.344 73.4388 395.072 73.7426 395.592L74.2351 396.434C74.5396 396.953 75.2712 397.065 75.8689 396.686C76.4656 396.307 76.704 395.58 76.4017 395.062L75.9092 394.219C75.6054 393.7 74.8741 393.586 74.2755 393.964Z" fill="#3A556A"/>
<path d="M69.8097 396.737C69.2113 397.116 68.9724 397.845 69.2761 398.364L69.2767 398.365L69.7693 399.207C70.0737 399.726 70.8054 399.839 71.4031 399.459C71.9998 399.08 72.2382 398.354 71.9359 397.835L71.4433 396.993C71.1398 396.473 70.4086 396.359 69.8097 396.737Z" fill="#3A556A"/>
<path d="M65.3465 399.509C64.7481 399.888 64.5092 400.616 64.8129 401.136L64.8135 401.137L65.3061 401.979C65.6106 402.498 66.3422 402.61 66.9399 402.231C67.5366 401.852 67.775 401.125 67.4728 400.607L66.9802 399.764C66.6764 399.245 65.9451 399.131 65.3465 399.509Z" fill="#3A556A"/>
</svg>
